<svg width="50" height="41" viewBox="0 0 50 41" fill="none" xmlns="http://www.w3.org/2000/svg">
<path d="M30.625 40.2031V36.4531H38.125C39 36.4531 39.7396 36.151 40.3438 35.5469C40.9479 34.9427 41.25 34.2031 41.25 33.3281V27.0781C41.25 25.5365 41.7188 24.1615 42.6562 22.9531C43.5938 21.7448 44.7917 20.9115 46.25 20.4531V19.9531C44.7917 19.5365 43.5938 18.7135 42.6562 17.4844C41.7188 16.2552 41.25 14.8698 41.25 13.3281V7.07812C41.25 6.20312 40.9479 5.46354 40.3438 4.85938C39.7396 4.25521 39 3.95312 38.125 3.95312H30.625V0.203125H38.125C40.0417 0.203125 41.6667 0.869792 43 2.20313C44.3333 3.53646 45 5.16146 45 7.07812V13.3281C45 14.2031 45.3021 14.9427 45.9062 15.5469C46.5104 16.151 47.25 16.4531 48.125 16.4531H50V23.9531H48.125C47.25 23.9531 46.5104 24.2552 45.9062 24.8594C45.3021 25.4635 45 26.2031 45 27.0781V33.3281C45 35.2448 44.3333 36.8698 43 38.2031C41.6667 39.5365 40.0417 40.2031 38.125 40.2031H30.625ZM11.875 40.2031C9.95833 40.2031 8.33333 39.5365 7 38.2031C5.66667 36.8698 5 35.2448 5 33.3281V27.0781C5 26.2031 4.69792 25.4635 4.09375 24.8594C3.48958 24.2552 2.75 23.9531 1.875 23.9531H0V16.4531H1.875C2.75 16.4531 3.48958 16.151 4.09375 15.5469C4.69792 14.9427 5 14.2031 5 13.3281V7.07812C5 5.16146 5.66667 3.53646 7 2.20313C8.33333 0.869792 9.95833 0.203125 11.875 0.203125H19.375V3.95312H11.875C11 3.95312 10.2604 4.25521 9.65625 4.85938C9.05208 5.46354 8.75 6.20312 8.75 7.07812V13.3281C8.75 14.8698 8.28125 16.2552 7.34375 17.4844C6.40625 18.7135 5.20833 19.5365 3.75 19.9531V20.4531C5.20833 20.9115 6.40625 21.7448 7.34375 22.9531C8.28125 24.1615 8.75 25.5365 8.75 27.0781V33.3281C8.75 34.2031 9.05208 34.9427 9.65625 35.5469C10.2604 36.151 11 36.4531 11.875 36.4531H19.375V40.2031H11.875Z" fill="black"/>
</svg>
