<svg width="26" height="51" viewBox="0 0 26 51" fill="none" xmlns="http://www.w3.org/2000/svg">
<path d="M0.5 0.203125H25.5V21.0156C25.5 21.974 25.2604 22.849 24.7812 23.6406C24.3021 24.4323 23.6458 25.0781 22.8125 25.5781L14 30.7031L15.625 36.7656H24L17.1875 41.8281L19.8125 50.2031L13 45.1406L6.125 50.2031L8.75 41.8281L1.9375 36.7656H10.375L11.9375 30.7031L3.1875 25.5781C2.35417 25.0781 1.69792 24.4323 1.21875 23.6406C0.739583 22.849 0.5 21.974 0.5 21.0156V0.203125ZM4.25 3.95312V21.0156C4.25 21.3073 4.34375 21.5781 4.53125 21.8281C4.71875 22.0781 5 22.3073 5.375 22.5156L11.375 25.8281V3.95312H4.25ZM21.75 3.95312H15.125V25.8281L20.625 22.5156C21 22.3073 21.2812 22.0781 21.4688 21.8281C21.6562 21.5781 21.75 21.3073 21.75 21.0156V3.95312Z" fill="black"/>
</svg>
