<svg width="45" height="46" viewBox="0 0 45 46" fill="none" xmlns="http://www.w3.org/2000/svg">
<path d="M0 45.7031V41.9531H39.9375V45.7031H0ZM9.4375 38.2031C6.8125 38.2031 4.58333 37.2969 2.75 35.4844C0.916666 33.6719 0 31.4531 0 28.8281V0.703125H41.25C42.2917 0.703125 43.1771 1.06771 43.9062 1.79688C44.6354 2.52604 45 3.41146 45 4.45312V14.4531C45 15.4948 44.6354 16.3802 43.9062 17.1094C43.1771 17.8385 42.2917 18.2031 41.25 18.2031H35.25V28.8281C35.25 31.4531 34.3333 33.6719 32.5 35.4844C30.6667 37.2969 28.4375 38.2031 25.8125 38.2031H9.4375ZM9.4375 34.4531H25.8125C27.3125 34.4531 28.6354 33.8802 29.7812 32.7344C30.9271 31.5885 31.5 30.2865 31.5 28.8281V4.45312H3.75V28.8281C3.75 30.2865 4.33333 31.5885 5.5 32.7344C6.66667 33.8802 7.97917 34.4531 9.4375 34.4531ZM35.25 14.4531H41.25V4.45312H35.25V14.4531Z" fill="black"/>
</svg>
